<?xml version="1.0" standalone="no"?>
<!DOCTYPE svg PUBLIC "-//W3C//DTD SVG 1.1//EN" "http://www.w3.org/Graphics/SVG/1.1/DTD/svg11.dtd" >
<svg xmlns="http://www.w3.org/2000/svg" xmlns:xlink="http://www.w3.org/1999/xlink" version="1.1">
<metadata>
Created by FontForge 20170910 at Tue May  1 10:54:33 2007
 By Jimmy Wärting
Copyright (c) 1991 Adobe Systems Incorporated.  All Rights Reserved.ITC Avant Garde Gothic is a registered trademark of International Typeface Corporation.
</metadata>
<defs>
<font id="AvantGardeLT-ExtraLight" horiz-adv-x="555" >
  <font-face 
    font-family="ITC Avant Garde Gothic LT"
    font-weight="300"
    font-stretch="normal"
    units-per-em="1000"
    panose-1="0 0 0 0 0 0 0 0 0 0"
    ascent="800"
    descent="-200"
    x-height="530"
    cap-height="740"
    bbox="-137 -274 1117 951"
    underline-thickness="50"
    underline-position="-100"
    stemh="26"
    stemv="28"
    unicode-range="U+0020-FB02"
  />
<missing-glyph horiz-adv-x="500" 
 />
    <glyph glyph-name=".notdef" horiz-adv-x="500" 
 />
    <glyph glyph-name="space" unicode=" " horiz-adv-x="277" 
 />
    <glyph glyph-name="exclam" unicode="!" horiz-adv-x="259" 
d="M145 740v-574h-30v574h30zM145 81v-81h-30v81h30z" />
    <glyph glyph-name="quotedbl" unicode="&#x22;" horiz-adv-x="333" 
d="M124 444h-30v296h30v-296zM239 444h-30v296h30v-296z" />
    <glyph glyph-name="numbersign" unicode="#" 
d="M361 271l-34 -240h-24l33 240h-143l-33 -240h-25l34 240h-151l3 23h151l19 137h-151l4 23h151l31 221h24l-31 -221h143l31 221h24l-31 -221h151l-3 -23h-152l-19 -137h152l-3 -23h-151zM339 294l20 137h-143l-20 -137h143z" />
    <glyph glyph-name="dollar" unicode="$" 
d="M296 810v-80c113 -14 155 -94 161 -162h-30c-12 103 -97 135 -144 135c-68 0 -141 -55 -141 -144c0 -101 77 -123 163 -147c52 -15 168 -47 168 -187c0 -91 -71 -180 -177 -187v-95h-30v95c-101 9 -177 84 -183 189h30c10 -114 97 -160 170 -160c90 0 160 71 160 159
c0 117 -91 142 -183 168c-58 16 -148 52 -148 165c0 90 62 159 154 171v80h30z" />
    <glyph glyph-name="percent" unicode="%" horiz-adv-x="719" 
d="M22 590c0 94 69 163 163 163s163 -69 163 -163s-69 -163 -163 -163s-163 69 -163 163zM320 590c0 80 -55 138 -135 138s-135 -58 -135 -138s55 -138 135 -138s135 58 135 138zM371 150c0 94 69 163 163 163s163 -69 163 -163s-69 -163 -163 -163s-163 69 -163 163z
M669 150c0 80 -55 138 -135 138s-135 -58 -135 -138s55 -138 135 -138s135 58 135 138zM603 740l-457 -740h-32l457 740h32z" />
    <glyph glyph-name="ampersand" unicode="&#x26;" horiz-adv-x="721" 
d="M643 467l-136 -261l192 -197l-21 -20l-185 189l-24 -47c-34 -64 -76 -144 -202 -144c-132 0 -212 105 -212 207c0 129 115 198 198 231l-38 41c-39 44 -63 73 -65 130c0 83 66 157 156 157c92 0 164 -75 164 -161c0 -102 -82 -137 -169 -176l184 -188l125 239h33z
M470 200l-197 204c-155 -68 -187 -141 -188 -211c1 -91 69 -178 185 -178c75 0 124 30 173 129zM231 491l50 -53c109 48 159 74 159 155c0 67 -54 130 -133 132c-83 -2 -127 -70 -127 -125c0 -49 27 -84 51 -109z" />
    <glyph glyph-name="quoteright" unicode="&#x2019;" horiz-adv-x="277" 
d="M90 586l64 154h33l-64 -154h-33z" />
    <glyph glyph-name="parenleft" unicode="(" horiz-adv-x="425" 
d="M393 753v-35c-142 -88 -258 -269 -258 -477c0 -209 116 -390 258 -478v-37c-40 26 -88 58 -139 116c-92 106 -151 248 -151 399c0 212 119 412 290 512z" />
    <glyph glyph-name="parenright" unicode=")" horiz-adv-x="425" 
d="M32 -274v34c142 89 258 270 258 478s-116 390 -258 478v37c40 -26 88 -58 139 -116c93 -107 151 -248 151 -399c0 -212 -119 -413 -290 -512z" />
    <glyph glyph-name="asterisk" unicode="*" horiz-adv-x="573" 
d="M301 740v-123l106 62l14 -25l-105 -61l107 -63l-14 -24l-108 61v-123h-29v124l-106 -62l-15 25l107 62l-107 60l15 26l106 -62v123h29z" />
    <glyph glyph-name="plus" unicode="+" horiz-adv-x="600" 
d="M314 501v-237h236v-28h-236v-236h-28v236h-236v28h236v237h28z" />
    <glyph glyph-name="comma" unicode="," horiz-adv-x="277" 
d="M156 82l-63 -154h-32l63 154h32z" />
    <glyph glyph-name="hyphen" unicode="-" horiz-adv-x="266" 
d="M0 291h266v-29h-266v29z" />
    <glyph glyph-name="period" unicode="." horiz-adv-x="277" 
d="M154 81v-81h-30v81h30z" />
    <glyph glyph-name="slash" unicode="/" horiz-adv-x="518" 
d="M451 740l-351 -840h-33l351 840h33z" />
    <glyph glyph-name="zero" unicode="0" 
d="M39 222v287c0 214 181 244 235 244c131 0 241 -93 241 -235v-296c0 -190 -171 -235 -236 -235c-86 0 -240 54 -240 235zM69 512v-290c0 -134 102 -208 208 -208c73 0 208 47 208 208v296c0 98 -65 208 -211 208c-107 0 -205 -73 -205 -214z" />
    <glyph glyph-name="one" unicode="1" 
d="M305 740v-740h-30v713h-164v27h194z" />
    <glyph glyph-name="two" unicode="2" 
d="M504 27v-27h-447v27l318 325c64 65 96 117 99 179c1 115 -81 195 -188 195c-96 0 -184 -69 -187 -212h-30c3 170 120 239 221 239c123 0 216 -96 214 -227c-5 -74 -46 -126 -109 -196l-298 -303h407z" />
    <glyph glyph-name="three" unicode="3" 
d="M39 215h30c4 -140 110 -201 198 -201c120 0 195 90 195 197c0 83 -60 199 -211 199h-40v27h39c150 0 163 115 163 145c0 84 -58 144 -140 144c-88 0 -142 -65 -147 -141h-30c7 113 94 168 174 168c88 0 173 -59 173 -172c0 -56 -31 -130 -104 -155v-2
c126 -44 153 -151 153 -207c0 -138 -94 -230 -228 -230c-111 0 -224 84 -225 228z" />
    <glyph glyph-name="four" unicode="4" 
d="M434 740v-569h75v-27h-75v-144h-30v144h-387v26l376 570h41zM402 704l-350 -533h352v533h-2z" />
    <glyph glyph-name="five" unicode="5" 
d="M141 740h332v-27h-308l-54 -279c28 21 77 58 159 58c143 0 245 -120 245 -251c0 -145 -117 -254 -248 -254c-95 0 -229 70 -246 230h30c15 -132 122 -203 217 -203c116 0 217 101 217 224c0 129 -103 227 -217 227c-31 0 -104 -6 -169 -86l-26 7z" />
    <glyph glyph-name="six" unicode="6" 
d="M354 740l-198 -288l2 -1c27 18 70 38 122 38c129 0 241 -101 241 -249c0 -134 -102 -253 -244 -253c-171 0 -244 138 -244 242c0 86 33 141 63 185l224 326h34zM63 231c0 -114 79 -217 213 -217c127 0 215 103 215 223c0 152 -115 225 -210 225c-86 0 -218 -62 -218 -231
z" />
    <glyph glyph-name="seven" unicode="7" 
d="M87 740h393v-27l-330 -713h-31l329 713h-361v27z" />
    <glyph glyph-name="eight" unicode="8" 
d="M99 579c0 93 80 174 178 174s178 -77 178 -174c0 -69 -45 -133 -108 -160c89 -28 153 -110 155 -210c-3 -124 -101 -222 -225 -222s-222 98 -225 222c2 99 65 181 155 210c-63 27 -108 91 -108 160zM129 578c0 -82 65 -147 148 -147s148 65 148 147
c0 83 -65 148 -148 148s-148 -65 -148 -148zM82 209c0 -109 86 -195 195 -195s195 86 195 195s-86 195 -195 195s-195 -86 -195 -195z" />
    <glyph glyph-name="nine" unicode="9" 
d="M201 0l198 288l-2 1c-13 -9 -31 -18 -52 -26c-21 -7 -44 -12 -70 -12c-129 0 -241 101 -241 249c0 134 102 253 244 253c171 0 244 -138 244 -242c0 -86 -33 -141 -63 -185l-224 -326h-34zM492 509c0 114 -79 217 -213 217c-127 0 -215 -103 -215 -223
c0 -152 115 -225 210 -225c86 0 218 62 218 231z" />
    <glyph glyph-name="colon" unicode=":" horiz-adv-x="277" 
d="M154 81v-81h-30v81h30zM154 530v-81h-30v81h30z" />
    <glyph glyph-name="semicolon" unicode=";" horiz-adv-x="277" 
d="M156 82l-63 -154h-32l63 154h32zM153 530v-81h-30v81h30z" />
    <glyph glyph-name="less" unicode="&#x3c;" horiz-adv-x="600" 
d="M50 267l500 235v-31l-467 -220l467 -220v-31l-500 235v32z" />
    <glyph glyph-name="equal" unicode="=" horiz-adv-x="600" 
d="M50 361h500v-28h-500v28zM50 167h500v-28h-500v28z" />
    <glyph glyph-name="greater" unicode="&#x3e;" horiz-adv-x="600" 
d="M50 31l467 220l-467 220v31l500 -235v-32l-500 -235v31z" />
    <glyph glyph-name="question" unicode="?" horiz-adv-x="536" 
d="M273 166h-30c2 65 4 129 91 212c52 54 100 90 103 166c0 96 -76 177 -181 177c-77 0 -181 -47 -186 -178h-30c7 160 137 209 215 209c111 0 212 -85 212 -210c0 -80 -63 -138 -119 -192c-76 -75 -75 -139 -75 -184zM272 81v-81h-29v81h29z" />
    <glyph glyph-name="at" unicode="@" horiz-adv-x="796" 
d="M723 187h25c-61 -145 -220 -200 -330 -200c-212 0 -377 167 -377 378c0 214 167 388 384 388c162 0 343 -107 343 -312c0 -197 -163 -280 -235 -280c-17 0 -79 4 -79 75h-2c-18 -28 -56 -71 -127 -71c-34 0 -108 21 -108 130c0 139 102 281 212 281c79 0 101 -55 106 -83
h2l23 67h28l-96 -272c-1 -4 -13 -31 -13 -51c-2 -47 37 -50 55 -50c72 0 206 85 206 253c0 195 -168 287 -313 287c-191 0 -358 -146 -358 -362c0 -215 169 -352 348 -352c106 0 243 52 306 174zM475 324l28 73c11 32 16 43 16 65c-2 68 -58 88 -88 88
c-82 0 -186 -114 -186 -255c0 -85 49 -104 82 -104c98 0 135 92 148 133z" />
    <glyph glyph-name="A" unicode="A" horiz-adv-x="687" 
d="M150 258l-111 -258h-32l317 740h39l317 -740h-32l-111 258h-387zM343 712l-180 -427h361z" />
    <glyph glyph-name="B" unicode="B" horiz-adv-x="540" 
d="M77 740h157c63 0 101 -10 130 -27c68 -36 87 -104 87 -159c0 -20 0 -116 -102 -161v-2c137 -39 148 -159 148 -194c-1 -91 -45 -149 -117 -180c-32 -11 -71 -17 -118 -17h-185v740zM107 713v-312h134c44 0 79 5 105 19c62 35 75 86 75 138c0 67 -37 116 -75 133
c-21 12 -48 21 -112 22h-127zM107 374v-347h156c39 0 76 5 106 16c56 24 97 72 98 154c0 74 -39 132 -100 159c-40 17 -66 18 -126 18h-134z" />
    <glyph glyph-name="C" unicode="C" horiz-adv-x="786" 
d="M714 161h34c-50 -85 -168 -174 -323 -174c-212 0 -384 161 -384 383s172 383 384 383c158 -1 270 -94 324 -178h-35c-28 39 -125 150 -289 151c-196 0 -354 -151 -354 -356s158 -356 354 -356c173 0 268 118 289 147z" />
    <glyph glyph-name="D" unicode="D" horiz-adv-x="701" 
d="M77 0v740h209c233 0 373 -137 373 -370s-140 -370 -373 -370h-209zM107 713v-686h179c214 0 343 127 343 341c0 216 -126 345 -343 345h-179z" />
    <glyph glyph-name="E" unicode="E" horiz-adv-x="547" 
d="M77 740h406v-27h-376v-327h376v-27h-376v-332h376v-27h-406v740z" />
    <glyph glyph-name="F" unicode="F" horiz-adv-x="477" 
d="M77 740h363v-27h-333v-327h333v-27h-333v-359h-30v740z" />
    <glyph glyph-name="G" unicode="G" horiz-adv-x="853" 
d="M342 313h477c-21 -179 -187 -326 -394 -326c-212 0 -384 161 -384 383s172 383 384 383c136 0 269 -67 336 -177h-36c-74 97 -179 150 -300 150c-196 0 -354 -151 -354 -356s158 -356 354 -356c188 0 331 134 358 272h-441v27z" />
    <glyph glyph-name="H" unicode="H" horiz-adv-x="628" 
d="M107 740v-354h414v354h30v-740h-30v359h-414v-359h-30v740h30z" />
    <glyph glyph-name="I" unicode="I" horiz-adv-x="185" 
d="M107 740v-740h-30v740h30z" />
    <glyph glyph-name="J" unicode="J" horiz-adv-x="453" 
d="M377 740v-528c0 -35 -1 -80 -18 -122c-11 -23 -26 -46 -51 -65c-36 -27 -79 -38 -118 -38c-82 0 -166 52 -184 154h33c27 -114 121 -127 153 -127c77 2 124 46 139 87c13 33 16 67 16 111v528h30z" />
    <glyph glyph-name="K" unicode="K" horiz-adv-x="536" 
d="M121 740v-500h2l377 500h36l-276 -365l276 -375h-36l-259 351l-120 -158v-193h-30v740h30z" />
    <glyph glyph-name="L" unicode="L" horiz-adv-x="423" 
d="M107 740v-713h313v-27h-343v740h30z" />
    <glyph glyph-name="M" unicode="M" horiz-adv-x="933" 
d="M125 740l342 -692l341 692h47v-740h-30v710h-1h1h-2l-348 -710h-17l-349 710h-2v-710h-30v740h48z" />
    <glyph glyph-name="N" unicode="N" horiz-adv-x="738" 
d="M122 740l507 -700h2v700h30v-740h-38l-514 710h-2v-710h-30v740h45z" />
    <glyph glyph-name="O" unicode="O" horiz-adv-x="851" 
d="M41 370c0 222 172 383 384 383s384 -161 384 -383s-172 -383 -384 -383s-384 161 -384 383zM71 370c0 -205 158 -356 354 -356s354 151 354 356s-158 356 -354 356s-354 -151 -354 -356z" />
    <glyph glyph-name="P" unicode="P" horiz-adv-x="511" 
d="M67 740h172c88 0 136 -8 185 -44c44 -32 75 -99 75 -166s-31 -134 -75 -166c-49 -36 -99 -44 -185 -44h-142v-320h-30v740zM97 713v-366h143c83 0 126 10 168 41c36 26 61 85 61 141c0 58 -25 117 -61 143c-42 31 -84 41 -168 41h-143z" />
    <glyph glyph-name="Q" unicode="Q" horiz-adv-x="882" 
d="M885 18v-31c-117 15 -153 38 -214 74c-36 -26 -117 -74 -228 -74c-236 0 -387 180 -387 383c0 222 172 383 384 383s384 -161 384 -383c0 -162 -87 -250 -128 -290c56 -33 101 -50 189 -62zM107 246c40 13 93 30 172 30c81 0 157 -20 220 -54c32 -17 46 -27 173 -124
c81 70 122 167 122 272c0 205 -158 356 -354 356s-354 -151 -354 -356c0 -62 12 -100 21 -124zM119 217c88 -182 253 -203 325 -203c91 0 166 37 204 66c-19 13 -121 91 -122 92c-79 52 -159 77 -251 77c-72 0 -116 -17 -156 -32z" />
    <glyph glyph-name="R" unicode="R" horiz-adv-x="554" 
d="M67 740h169c115 0 161 -10 197 -31c60 -30 107 -111 107 -197c4 -92 -57 -231 -218 -232l-29 -1l199 -279h-38l-217 306h46c70 0 115 6 164 47c47 49 63 100 63 158c0 64 -31 135 -88 172c-45 29 -99 30 -186 30h-139v-713h-30v740z" />
    <glyph glyph-name="S" unicode="S" horiz-adv-x="518" 
d="M45 187h30c18 -142 126 -173 183 -173c93 0 186 70 186 176c0 136 -118 164 -189 183c-65 16 -194 47 -194 186c-3 123 94 193 201 193c87 0 175 -51 191 -172h-30c-11 59 -44 145 -163 145c-94 0 -169 -64 -169 -161c-1 -117 97 -146 199 -172c36 -10 184 -37 184 -198
c0 -122 -105 -207 -215 -207c-89 0 -204 60 -214 200z" />
    <glyph glyph-name="T" unicode="T" horiz-adv-x="443" 
d="M5 740h432v-27h-201v-713h-30v713h-201v27z" />
    <glyph glyph-name="U" unicode="U" horiz-adv-x="605" 
d="M76 260v480h30v-480c0 -72 0 -118 46 -178c32 -42 93 -68 152 -68c56 0 117 26 149 68c46 60 46 106 46 178v480h30v-480c1 -67 -2 -167 -89 -228c-38 -28 -87 -45 -138 -45c-50 0 -99 17 -137 45c-87 61 -90 161 -89 228z" />
    <glyph glyph-name="V" unicode="V" horiz-adv-x="666" 
d="M41 740l292 -690l293 690h33l-316 -740h-21l-315 740h34z" />
    <glyph glyph-name="W" unicode="W" horiz-adv-x="888" 
d="M44 740l198 -699h2l189 699h21l191 -699h2l198 699h31l-212 -740h-39l-181 661h-2l-179 -661h-40l-211 740h32z" />
    <glyph glyph-name="X" unicode="X" 
d="M53 740l223 -336l225 336h35l-243 -364l254 -376h-35l-236 350l-235 -350h-33l252 376l-243 364h36z" />
    <glyph glyph-name="Y" unicode="Y" horiz-adv-x="554" 
d="M48 740l229 -451l228 451h34l-247 -485v-255h-30v255l-247 485h33z" />
    <glyph glyph-name="Z" unicode="Z" horiz-adv-x="499" 
d="M493 0h-473l403 713h-417v27h466l-403 -713h424v-27z" />
    <glyph glyph-name="bracketleft" unicode="[" horiz-adv-x="425" 
d="M344 753v-36c-97 -48 -134 -126 -134 -222v-510c0 -51 6 -158 134 -221v-36c-117 56 -166 141 -166 257v510c0 49 0 179 166 258z" />
    <glyph glyph-name="backslash" unicode="\" horiz-adv-x="518" 
d="M418 -100l-351 840h33l351 -840h-33z" />
    <glyph glyph-name="bracketright" unicode="]" horiz-adv-x="425" 
d="M81 -272v36c97 48 134 126 134 221v510c0 52 -6 159 -134 222v36c117 -57 166 -141 166 -258v-510c0 -48 0 -178 -166 -257z" />
    <glyph glyph-name="asciicircum" unicode="^" horiz-adv-x="600" 
d="M456 375l-156 332l-156 -332h-32l172 365h32l172 -365h-32z" />
    <glyph glyph-name="underscore" unicode="_" horiz-adv-x="500" 
d="M500 -125h-500v50h500v-50z" />
    <glyph glyph-name="quoteleft" unicode="&#x2018;" horiz-adv-x="277" 
d="M123 740l64 -154h-33l-64 154h33z" />
    <glyph glyph-name="a" unicode="a" horiz-adv-x="674" 
d="M596 530v-530h-28v132h-2c-46 -90 -134 -145 -246 -145c-174 0 -279 135 -279 278c0 146 108 278 279 278c128 0 220 -79 246 -148h2v135h28zM323 13c146 0 248 115 248 252c0 145 -109 252 -251 252c-138 0 -251 -103 -251 -252c1 -120 83 -252 254 -252z" />
    <glyph glyph-name="b" unicode="b" horiz-adv-x="674" 
d="M78 0v740h28v-345h2c37 77 118 146 246 148c171 0 279 -132 279 -278c0 -143 -105 -278 -279 -278c-112 0 -200 55 -246 145h-2v-132h-28zM351 13c171 0 253 132 254 252c0 149 -113 252 -251 252c-142 0 -251 -107 -251 -252c0 -137 102 -252 248 -252z" />
    <glyph glyph-name="c" unicode="c" horiz-adv-x="619" 
d="M552 167h31c-37 -108 -137 -178 -263 -180c-154 0 -279 112 -279 278v-1c0 157 118 279 279 279c108 0 222 -60 264 -185h-31c-41 117 -152 160 -232 159c-75 -1 -124 -22 -179 -71c-43 -39 -73 -109 -73 -181c0 -150 116 -252 251 -252c120 1 206 75 232 154z" />
    <glyph glyph-name="d" unicode="d" horiz-adv-x="677" 
d="M596 740v-740h-28v132h-2c-46 -90 -134 -145 -246 -145c-174 0 -279 135 -279 278c0 146 108 278 279 278c128 0 220 -79 246 -148h2v345h28zM323 13c146 0 248 115 248 252c0 145 -109 252 -251 252c-138 0 -251 -103 -251 -252c1 -120 83 -252 254 -252z" />
    <glyph glyph-name="e" unicode="e" horiz-adv-x="619" 
d="M588 262h-528c2 -173 147 -250 251 -249c98 0 184 50 226 140h31c-49 -113 -151 -167 -258 -166c-162 0 -279 120 -279 278v-1c0 159 122 279 280 279c142 0 271 -102 278 -266zM61 288h499c-6 128 -125 234 -249 229c-131 0 -242 -95 -250 -229z" />
    <glyph glyph-name="f" unicode="f" horiz-adv-x="263" 
d="M94 0v504h-87v26h87v52c0 37 0 163 166 171v-27c-36 -3 -140 -8 -138 -141v-55h138v-26h-138v-504h-28z" />
    <glyph glyph-name="g" unicode="g" horiz-adv-x="675" 
d="M68 -63h32c13 -21 31 -53 69 -82c49 -39 108 -55 156 -55c124 0 245 100 245 254v78h-3c-45 -90 -133 -145 -245 -145c-177 0 -282 135 -282 278c0 146 108 278 282 278c128 0 220 -79 246 -148h2v135h28v-471c-1 -222 -187 -285 -269 -285c-106 0 -215 58 -261 163z
M573 265c0 145 -109 252 -251 252c-141 0 -254 -103 -254 -252c1 -120 84 -252 257 -252c146 0 248 115 248 252z" />
    <glyph glyph-name="h" unicode="h" horiz-adv-x="640" 
d="M106 740v-312h2c33 77 129 117 213 115c68 0 124 -18 166 -53c52 -44 77 -115 77 -210v-280h-28v280c0 92 -25 151 -65 187c-41 37 -96 50 -150 50c-133 -2 -215 -79 -215 -212v-305h-28v740h28z" />
    <glyph glyph-name="i" unicode="i" horiz-adv-x="184" 
d="M106 530v-530h-28v530h28zM106 740v-91h-28v91h28z" />
    <glyph glyph-name="j" unicode="j" horiz-adv-x="219" 
d="M123 530v-524c0 -83 0 -203 -137 -219v30c98 15 109 85 109 189v524h28zM123 740v-92h-28v92h28z" />
    <glyph glyph-name="k" unicode="k" horiz-adv-x="467" 
d="M106 740v-595h2l289 385h37l-196 -259l213 -271h-37l-194 249l-114 -152v-97h-28v740h28z" />
    <glyph glyph-name="l" unicode="l" horiz-adv-x="183" 
d="M106 740v-740h-28v740h28z" />
    <glyph glyph-name="m" unicode="m" horiz-adv-x="949" 
d="M106 530v-94h2c49 97 142 107 176 107c64 0 120 -22 156 -65c15 -16 28 -38 35 -62h2c5 15 15 38 37 62c37 41 94 65 154 65c64 0 112 -20 145 -53c44 -43 61 -112 61 -193v-297h-28v297c0 73 -14 135 -54 175c-28 29 -69 45 -124 45c-47 0 -104 -18 -137 -61
c-34 -44 -41 -76 -41 -159v-297h-28v297c2 83 -11 121 -38 157c-31 40 -78 61 -140 63c-52 2 -103 -24 -129 -58c-29 -33 -49 -80 -49 -157v-302h-28v530h28z" />
    <glyph glyph-name="n" unicode="n" horiz-adv-x="641" 
d="M106 530v-102h2c33 77 129 117 213 115c68 0 124 -18 166 -53c52 -44 77 -115 77 -210v-280h-28v280c0 92 -25 151 -65 187c-41 37 -96 50 -150 50c-133 -2 -215 -79 -215 -212v-305h-28v530h28z" />
    <glyph glyph-name="o" unicode="o" horiz-adv-x="641" 
d="M41 265c0 158 120 278 279 278s279 -120 279 -278c0 -159 -120 -278 -279 -278s-279 119 -279 278zM69 265c0 -144 108 -252 251 -252s251 108 251 252s-108 252 -251 252s-251 -108 -251 -252z" />
    <glyph glyph-name="p" unicode="p" horiz-adv-x="677" 
d="M78 -213v743h28v-132h2c46 90 134 145 246 145c174 0 279 -135 279 -278c0 -146 -108 -278 -279 -278c-128 0 -220 79 -246 148h-2v-348h-28zM351 517c-146 0 -248 -115 -248 -252c0 -145 109 -252 251 -252c138 0 251 103 251 252c-1 120 -83 252 -254 252z" />
    <glyph glyph-name="q" unicode="q" horiz-adv-x="674" 
d="M596 530v-743h-28v348h-2c-26 -69 -118 -148 -246 -148c-171 0 -279 132 -279 278c0 143 105 278 279 278c112 0 200 -55 246 -145h2v132h28zM323 517c-171 0 -253 -132 -254 -252c0 -149 113 -252 251 -252c142 0 251 107 251 252c0 137 -102 252 -248 252z" />
    <glyph glyph-name="r" unicode="r" horiz-adv-x="302" 
d="M106 530v-96h2c48 100 139 106 185 109v-27c-32 -1 -68 -3 -116 -37c-63 -57 -71 -119 -71 -192v-287h-28v530h28z" />
    <glyph glyph-name="s" unicode="s" horiz-adv-x="426" 
d="M48 147h28c0 -85 58 -134 135 -134c79 0 129 60 127 129c-2 73 -42 108 -128 127c-80 23 -140 46 -143 137c0 88 65 137 144 137c77 -1 140 -47 140 -138h-28c0 80 -55 113 -112 112c-71 0 -119 -48 -116 -111c3 -64 41 -88 116 -109c70 -19 149 -38 155 -151
c5 -87 -64 -159 -155 -159c-88 0 -169 63 -163 160z" />
    <glyph glyph-name="t" unicode="t" horiz-adv-x="296" 
d="M124 530v210h28v-210h136v-26h-136v-504h-28v504h-117v26h117z" />
    <glyph glyph-name="u" unicode="u" horiz-adv-x="641" 
d="M536 0v107h-2c-33 -82 -125 -122 -213 -120c-68 0 -124 18 -166 53c-52 44 -77 115 -77 210v280h28v-280c0 -92 25 -151 65 -187c41 -37 96 -50 150 -50c133 1 215 79 215 216v301h28v-530h-28z" />
    <glyph glyph-name="v" unicode="v" horiz-adv-x="481" 
d="M222 0l-218 530h29l207 -497l204 497h32l-218 -530h-36z" />
    <glyph glyph-name="w" unicode="w" horiz-adv-x="758" 
d="M41 530l179 -488h2l147 416h21l147 -416h2l178 488h32l-196 -530h-32l-142 402h-2l-140 -402h-32l-195 530h31z" />
    <glyph glyph-name="x" unicode="x" horiz-adv-x="407" 
d="M46 530l158 -237l159 237h34l-176 -264l176 -266h-34l-159 239l-158 -239h-36l177 266l-177 264h36z" />
    <glyph glyph-name="y" unicode="y" horiz-adv-x="481" 
d="M42 530l196 -491l209 491h33l-321 -743h-32l94 214l-210 529h31z" />
    <glyph glyph-name="z" unicode="z" horiz-adv-x="407" 
d="M30 530h347v-27l-329 -477h346v-26h-382v24l329 480h-311v26z" />
    <glyph glyph-name="braceleft" unicode="{" horiz-adv-x="425" 
d="M344 -272h-66c-63 0 -82 40 -82 126v183c0 92 -15 153 -81 186v28c48 12 81 88 81 192v187c0 85 19 123 82 123h66v-26h-54c-53 0 -62 -22 -62 -115v-185c0 -66 -23 -158 -81 -190c50 -22 81 -98 81 -183v-183c0 -101 11 -117 62 -117h54v-26z" />
    <glyph glyph-name="bar" unicode="|" 
d="M263 740h30v-840h-30v840z" />
    <glyph glyph-name="braceright" unicode="}" horiz-adv-x="425" 
d="M81 -272v26h54c51 0 62 16 62 117v183c0 85 31 161 81 183c-58 32 -81 124 -81 190v185c0 93 -9 115 -62 115h-54v26h66c63 0 82 -38 82 -123v-187c0 -104 33 -180 81 -192v-28c-66 -33 -81 -94 -81 -186v-183c0 -86 -19 -126 -82 -126h-66z" />
    <glyph glyph-name="asciitilde" unicode="~" horiz-adv-x="600" 
d="M95 211l-19 18c26 49 73 76 122 72c40 0 80 -20 118 -37c39 -18 75 -36 106 -36c39 0 63 33 82 62l19 -19c-24 -44 -62 -71 -99 -71c-38 0 -75 18 -114 36s-79 37 -112 37c-35 2 -71 -8 -103 -62z" />
    <glyph glyph-name="exclamdown" unicode="&#xa1;" horiz-adv-x="259" 
d="M115 -209v574h30v-574h-30zM115 450v81h30v-81h-30z" />
    <glyph glyph-name="cent" unicode="&#xa2;" 
d="M487 469h-33c-45 83 -120 94 -163 94c-120 0 -193 -90 -193 -191c0 -98 65 -196 192 -196c96 0 147 56 164 89h34c-52 -101 -147 -116 -181 -118v-108h-30v108c-143 9 -209 128 -209 222c0 91 59 210 209 223v95h30v-96c57 -7 133 -26 180 -122z" />
    <glyph glyph-name="sterling" unicode="&#xa3;" 
d="M404 393v-27h-244v-2c38 -27 104 -93 104 -192c0 -18 0 -76 -45 -145h92c90 0 120 16 151 45c40 43 53 88 53 127c0 24 -4 38 -7 50h31c3 -14 6 -22 6 -49c0 -73 -38 -125 -60 -147c-48 -42 -80 -53 -179 -53h-270v27h148c10 16 50 60 50 144c0 81 -41 136 -116 195h-112
v27h86c-19 24 -40 67 -41 122c0 133 99 237 238 237c102 0 202 -64 232 -183h-31c-26 91 -105 156 -201 156c-121 -2 -204 -85 -208 -210c1 -34 10 -78 50 -122h273z" />
    <glyph glyph-name="fraction" unicode="&#x2044;" horiz-adv-x="86" 
d="M222 740l-330 -740h-29l329 740h30z" />
    <glyph glyph-name="yen" unicode="&#xa5;" 
d="M509 409v-26h-205l-13 -26v-82h218v-26h-218v-249h-30v249h-214v26h214v82l-14 26h-200v26h185l-200 331h32l212 -350l216 350h32l-204 -331h189z" />
    <glyph glyph-name="florin" unicode="&#x192;" 
d="M356 562h141l-7 -27h-138l-94 -498c-15 -81 -36 -189 -183 -189c-20 0 -40 2 -60 8l6 28c16 -4 30 -9 54 -9c122 0 139 90 151 156l95 504h-144l6 27h142l10 51c14 81 31 124 70 160c31 25 72 40 110 40c13 0 19 -1 27 -3l-6 -26c-7 1 -12 2 -24 2
c-39 -3 -68 -14 -90 -36c-40 -39 -48 -100 -57 -137z" />
    <glyph glyph-name="section" unicode="&#xa7;" horiz-adv-x="573" 
d="M476 586h-28c-10 113 -77 137 -154 137c-90 0 -150 -55 -151 -136c2 -80 58 -107 101 -127l150 -71c26 -12 119 -55 119 -154c0 -64 -38 -122 -95 -155c61 -43 70 -93 70 -127c0 -101 -82 -176 -199 -176c-17 0 -212 0 -212 192v32h28v-31c1 -118 91 -164 183 -163
c102 0 169 55 172 146c-3 54 -25 91 -104 127l-195 90c-24 13 -101 45 -101 154c0 54 30 117 101 153c-18 17 -46 50 -46 107c0 106 79 169 179 169c108 0 182 -60 182 -167zM380 363l-198 95c-54 -26 -93 -72 -94 -137c1 -55 30 -97 77 -120l225 -104c37 15 94 69 95 136
c-1 81 -63 109 -105 130z" />
    <glyph glyph-name="currency" unicode="&#xa4;" 
d="M11 463h67v46c0 160 109 244 239 244c86 0 168 -37 224 -117l-17 -26c-43 69 -110 116 -208 116c-119 0 -208 -82 -208 -214v-49h358l-11 -27h-347v-107h304l-11 -27h-293v-80c0 -133 97 -208 208 -208c101 0 176 59 199 143h30c-27 -111 -125 -170 -227 -170
c-101 0 -240 60 -240 235v80h-78l11 27h67v107h-78z" />
    <glyph glyph-name="quotesingle" unicode="'" horiz-adv-x="222" 
d="M126 444h-30v296h30v-296z" />
    <glyph glyph-name="quotedblleft" unicode="&#x201c;" horiz-adv-x="370" 
d="M125 740l64 -154h-33l-64 154h33zM214 740l64 -154h-33l-64 154h33z" />
    <glyph glyph-name="guillemotleft" unicode="&#xab;" horiz-adv-x="351" 
d="M49 276l111 193l20 -26l-96 -167l96 -166l-20 -26zM160 276l112 193l19 -26l-96 -167l96 -166l-19 -26z" />
    <glyph glyph-name="guilsinglleft" unicode="&#x2039;" horiz-adv-x="248" 
d="M53 275l111 194l20 -26l-96 -168l96 -165l-20 -26z" />
    <glyph glyph-name="guilsinglright" unicode="&#x203a;" horiz-adv-x="248" 
d="M84 469l111 -194l-111 -191l-20 26l96 165l-96 168z" />
    <glyph glyph-name="fi" unicode="&#xfb01;" horiz-adv-x="393" 
d="M315 740v-91h-28v91h28zM94 504h-87v26h87v52c0 37 0 163 166 171v-27c-36 -3 -140 -8 -138 -141v-55h193v-530h-28v504h-165v-504h-28v504z" />
    <glyph glyph-name="fl" unicode="&#xfb02;" horiz-adv-x="393" 
d="M94 504h-87v26h87v52c0 37 0 163 166 171v-27c-36 -3 -140 -8 -138 -141v-55h165v210h28v-740h-28v504h-165v-504h-28v504z" />
    <glyph glyph-name="endash" unicode="&#x2013;" horiz-adv-x="500" 
d="M35 291h430v-29h-430v29z" />
    <glyph glyph-name="dagger" unicode="&#x2020;" horiz-adv-x="573" 
d="M301 740v-214h190v-30h-190v-596h-30v596h-188v30h188v214h30z" />
    <glyph glyph-name="daggerdbl" unicode="&#x2021;" horiz-adv-x="573" 
d="M303 740v-185h188v-30h-188v-410h188v-30h-188v-185h-30v185h-190v30h190v410h-190v30h190v185h30z" />
    <glyph glyph-name="periodcentered" unicode="&#xb7;" horiz-adv-x="277" 
d="M154 296v-81h-30v81h30z" />
    <glyph glyph-name="paragraph" unicode="&#xb6;" horiz-adv-x="561" 
d="M239 -126v469h-20c-132 0 -207 93 -207 197c0 78 42 138 90 168c24 15 74 32 144 32h246v-28h-64v-838h-30v836h-129v-836h-30z" />
    <glyph glyph-name="bullet" unicode="&#x2022;" horiz-adv-x="375" 
d="M189 532c83 0 151 -70 151 -155c0 -86 -69 -155 -152 -155c-85 0 -153 71 -153 155c0 82 65 155 154 155z" />
    <glyph glyph-name="quotesinglbase" unicode="&#x201a;" horiz-adv-x="277" 
d="M90 -72l64 154h33l-64 -154h-33z" />
    <glyph glyph-name="quotedblbase" unicode="&#x201e;" horiz-adv-x="370" 
d="M181 -72l64 154h33l-64 -154h-33zM92 -72l64 154h33l-64 -154h-33z" />
    <glyph glyph-name="quotedblright" unicode="&#x201d;" horiz-adv-x="370" 
d="M181 586l64 154h33l-64 -154h-33zM92 586l64 154h33l-64 -154h-33z" />
    <glyph glyph-name="guillemotright" unicode="&#xbb;" horiz-adv-x="351" 
d="M191 469l111 -193l-111 -192l-20 26l96 166l-96 167zM79 469l112 -193l-112 -192l-19 26l96 166l-96 167z" />
    <glyph glyph-name="ellipsis" unicode="&#x2026;" horiz-adv-x="1000" 
d="M182 82v-82h-30v82h30zM515 82v-82h-30v82h30zM848 82v-82h-30v82h30z" />
    <glyph glyph-name="perthousand" unicode="&#x2030;" horiz-adv-x="1089" 
d="M20 590c0 94 69 163 163 163s163 -69 163 -163s-69 -163 -163 -163s-163 69 -163 163zM318 590c0 80 -55 138 -135 138s-135 -58 -135 -138s55 -138 135 -138s135 58 135 138zM369 150c0 94 69 163 163 163s163 -69 163 -163s-69 -163 -163 -163s-163 69 -163 163z
M667 150c0 80 -55 138 -135 138s-135 -58 -135 -138s55 -138 135 -138s135 58 135 138zM744 150c0 94 69 163 163 163s163 -69 163 -163s-69 -163 -163 -163s-163 69 -163 163zM1042 150c0 80 -55 138 -135 138s-135 -58 -135 -138s55 -138 135 -138s135 58 135 138z
M601 740l-457 -740h-32l457 740h32z" />
    <glyph glyph-name="questiondown" unicode="&#xbf;" horiz-adv-x="536" 
d="M263 364h30c-2 -65 -4 -129 -91 -212c-52 -54 -100 -90 -103 -166c0 -96 76 -177 181 -177c77 0 181 47 186 178h30c-7 -160 -137 -209 -215 -209c-111 0 -212 85 -212 210c0 80 63 138 119 192c76 75 75 139 75 184zM264 449v81h29v-81h-29z" />
    <glyph glyph-name="grave" unicode="`" 
d="M158 766l237 -138l-13 -23l-238 138z" />
    <glyph glyph-name="acute" unicode="&#xb4;" 
d="M160 628l237 138l14 -23l-238 -138z" />
    <glyph glyph-name="circumflex" unicode="&#x2c6;" 
d="M277 748l196 -110l-26 -15l-170 94l-170 -94l-25 15z" />
    <glyph glyph-name="tilde" unicode="&#x2dc;" 
d="M438 686l20 -21c-24 -16 -56 -32 -89 -32c-27 0 -55 4 -91 25c-44 23 -58 28 -84 28c-35 0 -63 -15 -78 -27l-20 20c22 18 51 35 98 35c21 0 40 -3 85 -24c37 -20 55 -27 89 -27c26 0 43 7 70 23z" />
    <glyph glyph-name="macron" unicode="&#xaf;" 
d="M455 690v-30h-356v30h356z" />
    <glyph glyph-name="breve" unicode="&#x2d8;" 
d="M86 716h38c17 -25 48 -53 153 -53c115 0 140 34 154 53h38c-18 -30 -49 -82 -192 -82c-78 0 -153 14 -191 82z" />
    <glyph glyph-name="dotaccent" unicode="&#x2d9;" 
d="M293 734v-116h-31v116h31z" />
    <glyph glyph-name="dieresis" unicode="&#xa8;" 
d="M232 734v-116h-29v116h29zM352 734v-116h-29v116h29z" />
    <glyph glyph-name="ring" unicode="&#x2da;" 
d="M277 777c51 0 92 -41 92 -91s-41 -91 -92 -91c-50 0 -91 41 -91 91c0 51 42 91 91 91zM277 751c-35 0 -63 -29 -63 -64c0 -34 28 -63 63 -63c36 0 64 29 64 63c0 35 -28 64 -64 64z" />
    <glyph glyph-name="cedilla" unicode="&#xb8;" 
d="M290 0l-26 -56l2 -1c2 1 7 3 13 3c47 0 72 -37 72 -71c0 -36 -24 -76 -73 -76c-13 0 -64 3 -74 62h27c9 -35 40 -35 47 -35c22 0 45 16 46 49c-1 27 -22 45 -46 45c-17 0 -31 -8 -41 -25l-22 5l46 100h29z" />
    <glyph glyph-name="hungarumlaut" unicode="&#x2dd;" 
d="M144 628l226 160l16 -22l-226 -161zM255 628l226 160l16 -22l-226 -161z" />
    <glyph glyph-name="ogonek" unicode="&#x2db;" 
d="M285 0h29c-60 -44 -86 -63 -86 -106s34 -71 73 -71c21 0 38 6 56 13v-29c-11 -6 -24 -13 -56 -13c-63 0 -104 39 -104 97c0 67 59 96 88 109z" />
    <glyph glyph-name="caron" unicode="&#x2c7;" 
d="M278 623l-196 110l26 15l170 -94l170 94l25 -14z" />
    <glyph glyph-name="emdash" unicode="&#x2014;" horiz-adv-x="1000" 
d="M35 291h930v-29h-930v29z" />
    <glyph glyph-name="AE" unicode="&#xc6;" horiz-adv-x="944" 
d="M504 740h366v-27h-316v-327h316v-27h-316v-332h316v-27h-346v264h-315l-183 -264h-34zM522 722l-291 -431h293v431h-2z" />
    <glyph glyph-name="ordfeminine" unicode="&#xaa;" horiz-adv-x="439" 
d="M360 495h-2c-7 -18 -22 -43 -59 -67c-37 -23 -74 -24 -92 -24c-109 0 -181 84 -181 175c0 96 79 174 181 174c42 0 85 -15 114 -42c15 -14 29 -32 37 -51h2v85h28v-333h-28v83zM54 575c0 -65 55 -145 154 -145c91 0 152 70 152 148c0 84 -71 149 -153 149
c-76 0 -153 -55 -153 -152z" />
    <glyph glyph-name="Lslash" unicode="&#x141;" horiz-adv-x="423" 
d="M0 280v35l81 60v365h30v-343l157 115v-35l-157 -115v-3v-332h313v-27h-343v340z" />
    <glyph glyph-name="Oslash" unicode="&#xd8;" horiz-adv-x="851" 
d="M207 87l420 578c-58 39 -127 61 -202 61c-196 0 -354 -151 -354 -356c0 -119 53 -220 136 -283zM651 647l-419 -576c56 -37 122 -57 193 -57c196 0 354 151 354 356c0 115 -50 214 -128 277zM644 688l88 121l24 -18l-88 -121c87 -70 141 -175 141 -300
c0 -222 -172 -383 -384 -383c-78 0 -151 22 -210 61l-98 -134l-23 18l96 132c-90 68 -149 177 -149 306c0 222 172 383 384 383c82 0 158 -24 219 -65z" />
    <glyph glyph-name="OE" unicode="&#x152;" horiz-adv-x="1178" 
d="M1117 713h-315v-327h315v-27h-315v-332h315v-27h-345v229h-2c-41 -141 -182 -242 -348 -242c-213 0 -381 157 -381 383s168 383 377 383c169 0 310 -100 352 -242h2v229h345v-27zM71 370c0 -209 154 -356 349 -356c223 0 347 182 352 346v22c-4 156 -123 344 -352 344
c-195 0 -349 -147 -349 -356z" />
    <glyph glyph-name="ordmasculine" unicode="&#xba;" horiz-adv-x="439" 
d="M44 575c0 101 75 177 174 178c105 0 177 -81 177 -174c0 -106 -88 -175 -177 -175c-94 0 -174 76 -174 171zM72 576c0 -78 65 -146 146 -146c78 0 148 62 149 149c-1 80 -62 148 -147 148c-78 0 -148 -59 -148 -151z" />
    <glyph glyph-name="ae" unicode="&#xe6;" horiz-adv-x="1154" 
d="M595 530v-154h2c8 19 12 32 20 46c68 106 157 121 218 121c174 0 275 -135 278 -281h-518c18 -205 174 -249 248 -249c109 0 183 74 221 140h33c-35 -77 -125 -166 -251 -166c-91 -1 -172 40 -223 115c-12 18 -19 36 -26 60h-2v-162h-28v162h-2c-7 -25 -13 -44 -26 -61
c-65 -96 -173 -113 -219 -114c-159 0 -279 119 -279 278v-1c0 159 120 279 277 279c89 0 175 -39 227 -122c10 -16 14 -31 20 -46h2v155h28zM596 288h486c-24 151 -120 229 -245 229c-56 0 -120 -15 -178 -82c-47 -53 -55 -100 -63 -147zM568 265c0 133 -110 252 -247 252
c-144 0 -252 -108 -252 -252s108 -252 252 -252c133 0 247 115 247 252z" />
    <glyph glyph-name="dotlessi" unicode="&#x131;" horiz-adv-x="184" 
d="M106 530v-530h-28v530h28z" />
    <glyph glyph-name="lslash" unicode="&#x142;" horiz-adv-x="219" 
d="M123 428l97 71v-29l-97 -72v-398h-28v382l-79 -58v30l79 58v328h28v-312z" />
    <glyph glyph-name="oslash" unicode="&#xf8;" horiz-adv-x="641" 
d="M69 265c0 -81 35 -152 91 -197l297 409c-39 26 -85 40 -137 40c-143 0 -251 -108 -251 -252zM571 265c0 81 -34 151 -91 197l-298 -410c40 -25 87 -39 138 -39c143 0 251 108 251 252zM41 265c0 158 120 278 279 278c58 0 111 -16 153 -44l62 86l21 -17l-60 -84
c64 -52 103 -129 103 -219c0 -159 -120 -278 -279 -278c-58 0 -110 16 -153 44l-60 -83l-22 17l60 82c-64 49 -104 127 -104 218z" />
    <glyph glyph-name="oe" unicode="&#x153;" horiz-adv-x="1156" 
d="M1116 263h-518c8 -169 131 -250 247 -250c89 0 185 46 219 142h31c-15 -35 -36 -84 -99 -126c-51 -30 -101 -42 -151 -42c-85 0 -221 49 -260 191h-2c-58 -146 -171 -191 -263 -191c-159 0 -279 119 -279 278v-1c0 159 120 279 279 279c84 0 160 -38 211 -99
c29 -38 41 -68 50 -95l2 4c52 152 182 186 258 186c159 0 275 -130 275 -276zM568 263c0 121 -96 254 -248 254c-143 0 -251 -108 -251 -252s108 -252 251 -252c145 0 248 124 248 250zM599 289h484c-4 82 -80 224 -243 224c-125 0 -226 -93 -241 -224z" />
    <glyph glyph-name="germandbls" unicode="&#xdf;" horiz-adv-x="559" 
d="M76 0v472c0 114 9 160 39 201c33 51 94 79 152 79c122 0 196 -81 196 -197c0 -42 -15 -138 -111 -177v-2c113 -15 165 -107 165 -191c0 -119 -95 -198 -196 -198c-87 1 -191 47 -199 204h28c6 -143 109 -177 174 -178c86 0 165 69 165 167c0 26 -5 90 -63 138
c-31 22 -60 38 -151 39h-28v26h27c82 0 161 72 161 172c0 110 -69 171 -167 171c-50 0 -102 -25 -127 -63c-34 -50 -37 -97 -37 -191v-472h-28z" />
    <glyph glyph-name="oldcurrency" 
d="M492 105l-76 76c-40 -32 -88 -51 -139 -51c-52 0 -101 20 -139 51l-77 -76l-20 21l77 77c-36 40 -56 88 -56 140c0 53 20 101 54 138l-77 77l21 21l77 -77c40 35 89 54 140 54c52 0 101 -19 140 -53l76 76l22 -21l-76 -77c33 -37 53 -84 53 -138c0 -53 -20 -101 -56 -140
l77 -77zM92 343c0 -101 88 -183 185 -183c99 0 185 82 185 183c0 103 -86 183 -185 183c-97 0 -185 -79 -185 -183z" />
    <glyph glyph-name="divide" unicode="&#xf7;" horiz-adv-x="600" 
d="M50 264h500v-28h-500v28zM315 81v-81h-30v81h30zM315 500v-81h-30v81h30z" />
    <glyph glyph-name="threequarters" unicode="&#xbe;" horiz-adv-x="807" 
d="M694 407l-193 -297h194v297l1 -2zM610 740l-330 -740h-29l329 740h30zM723 444v-334h42v-25h-42v-85h-28v85h-228v21l223 338h33zM40 430h28c2 -88 67 -117 111 -117c70 0 111 48 111 112c0 46 -33 112 -119 112h-27v25h27c85 0 91 66 91 80c0 43 -29 80 -78 81
c-48 1 -80 -33 -82 -81h-28c4 77 64 106 110 106c54 0 106 -42 106 -105c0 -58 -40 -83 -57 -92c49 -20 85 -68 85 -124c0 -81 -58 -139 -139 -139c-67 0 -138 47 -139 142z" />
    <glyph glyph-name="onequarter" unicode="&#xbc;" horiz-adv-x="700" 
d="M502 740l-330 -740h-29l329 740h30zM586 407l-193 -297h194v297l1 -2zM167 740v-444h-28v419h-95v25h123zM615 444v-334h42v-25h-42v-85h-28v85h-228v21l223 338h33z" />
    <glyph glyph-name="onesuperior" unicode="&#xb9;" horiz-adv-x="351" 
d="M197 740v-444h-28v419h-95v25h123z" />
    <glyph glyph-name="multiply" unicode="&#xd7;" horiz-adv-x="600" 
d="M70 499l230 -228l230 228l20 -22l-229 -226l229 -228l-20 -21l-230 229l-230 -229l-20 21l229 228l-229 226z" />
    <glyph glyph-name="registered" unicode="&#xae;" horiz-adv-x="800" 
d="M235 589h185c26 0 153 0 153 -119c0 -59 -39 -95 -86 -108v-2c63 -15 74 -53 77 -100c6 -89 6 -98 15 -114h-29c-7 11 -7 18 -12 100c-4 62 -10 101 -133 101h-142v-201h-28v443zM415 563h-152v-190h140c32 4 142 2 142 97c0 93 -97 93 -130 93zM400 751
c218 0 381 -170 381 -381c0 -217 -170 -381 -381 -381c-214 0 -382 162 -382 381c0 209 161 381 382 381zM400 725c-206 0 -354 -162 -354 -355c0 -199 154 -355 354 -355c197 0 353 154 353 355c0 194 -148 355 -353 355z" />
    <glyph glyph-name="Thorn" unicode="&#xde;" horiz-adv-x="511" 
d="M67 740h30v-156h142c96 0 136 -8 185 -44c44 -32 75 -99 75 -166s-31 -134 -75 -166c-49 -36 -89 -44 -185 -44h-142v-164h-30v740zM97 557v-366h143c87 0 126 10 168 41c35 27 61 85 61 141c0 58 -26 116 -61 143c-42 31 -81 41 -168 41h-143z" />
    <glyph glyph-name="brokenbar" unicode="&#xa6;" 
d="M263 740h30v-336h-30v336zM263 236h30v-336h-30v336z" />
    <glyph glyph-name="Eth" unicode="&#xd0;" horiz-adv-x="701" 
d="M77 359h-77v27h77v354h209c233 0 373 -137 373 -370s-140 -370 -373 -370h-209v359zM358 386v-27h-251v-332h179c214 0 343 127 343 341c0 216 -126 345 -343 345h-179v-327h251z" />
    <glyph glyph-name="onehalf" unicode="&#xbd;" horiz-adv-x="750" 
d="M167 740v-444h-28v419h-95v25h123zM502 740l-330 -740h-29l329 740h30zM707 25v-25h-271v23l185 193c38 42 55 71 55 104c0 50 -24 107 -102 107c-62 0 -103 -46 -103 -123h-28c0 107 71 148 133 148c76 0 128 -50 128 -132c0 -44 -25 -80 -64 -122l-165 -173h232z" />
    <glyph glyph-name="minus" unicode="&#x2212;" horiz-adv-x="600" 
d="M50 264h500v-28h-500v28z" />
    <glyph glyph-name="ccedilla" unicode="&#xe7;" horiz-adv-x="619" 
d="M552 167h31c-37 -108 -137 -178 -263 -180h-2l-20 -43l2 -1c2 1 7 3 13 3c47 0 72 -37 72 -71c0 -36 -24 -76 -73 -76c-13 0 -64 3 -74 62h27c9 -35 40 -35 47 -35c22 0 45 16 46 49c-1 27 -22 45 -46 45c-17 0 -31 -8 -41 -25l-22 5l41 90c-140 12 -249 120 -249 275
c1 157 119 278 279 278c108 0 222 -60 264 -185h-31c-41 117 -152 160 -232 159c-75 -1 -124 -22 -179 -71c-43 -39 -73 -109 -73 -181c0 -150 116 -252 251 -252c120 1 206 75 232 154z" />
    <glyph glyph-name="eth" unicode="&#xf0;" horiz-adv-x="641" 
d="M69 265c-1 -144 107 -252 251 -252c146 0 252 110 252 253c0 140 -117 251 -250 251c-146 -1 -254 -109 -253 -252zM308 641l-191 -77l-20 20l180 73c-49 24 -99 45 -166 68l34 15c65 -22 120 -46 166 -70l175 70l19 -21l-163 -65c198 -116 258 -244 258 -388
c0 -180 -144 -276 -280 -279c-141 0 -277 95 -279 277c3 168 121 276 280 279c75 0 152 -33 199 -90l2 2c-52 80 -127 140 -214 186z" />
    <glyph glyph-name="plusminus" unicode="&#xb1;" horiz-adv-x="600" 
d="M286 309v197h28v-197h238v-28h-238v-197h-28v197h-238v28h238zM48 0v28h504v-28h-504z" />
    <glyph glyph-name="Ccedilla" unicode="&#xc7;" horiz-adv-x="786" 
d="M714 161h34c-50 -85 -168 -174 -323 -174h-5l-20 -43l2 -1c2 1 7 3 13 3c47 0 72 -37 72 -71c0 -36 -24 -76 -73 -76c-13 0 -64 3 -74 62h27c9 -35 40 -35 47 -35c22 0 45 16 46 49c-1 27 -22 45 -46 45c-17 0 -31 -8 -41 -25l-22 5l41 89c-196 15 -351 170 -351 381
c0 222 172 383 384 383c158 -1 270 -94 324 -178h-35c-28 39 -125 150 -289 151c-196 0 -354 -151 -354 -356s158 -356 354 -356c173 0 268 118 289 147z" />
    <glyph glyph-name="thorn" unicode="&#xfe;" horiz-adv-x="681" 
d="M106 740v-353h2c62 133 193 156 251 156c159 0 280 -120 280 -278c0 -159 -121 -278 -280 -278c-115 0 -208 66 -251 153h-2v-353h-28v953h28zM106 262c0 -125 107 -249 254 -249c144 0 251 108 251 252s-107 252 -251 252c-131 0 -254 -101 -254 -255z" />
    <glyph glyph-name="copyright" unicode="&#xa9;" horiz-adv-x="800" 
d="M600 451h-28c-18 91 -98 124 -166 124c-104 0 -188 -75 -188 -205c0 -150 103 -204 187 -204c32 0 159 11 176 162h28c-9 -120 -103 -188 -205 -188c-103 0 -214 70 -214 229c0 137 87 232 217 232c100 0 182 -62 193 -150zM400 751c218 0 381 -170 381 -381
c0 -217 -170 -381 -381 -381c-214 0 -382 162 -382 381c0 209 161 381 382 381zM400 725c-206 0 -354 -162 -354 -355c0 -199 154 -355 354 -355c197 0 353 154 353 355c0 194 -148 355 -353 355z" />
    <glyph glyph-name="logicalnot" unicode="&#xac;" horiz-adv-x="600" 
d="M50 361h500v-222h-28v194h-472v28z" />
    <glyph glyph-name="twosuperior" unicode="&#xb2;" horiz-adv-x="351" 
d="M307 321v-25h-271v23l185 193c38 42 55 71 55 104c0 50 -24 107 -102 107c-62 0 -103 -46 -103 -123h-28c0 107 71 148 133 148c76 0 128 -50 128 -132c0 -44 -25 -80 -64 -122l-165 -173h232z" />
    <glyph glyph-name="threesuperior" unicode="&#xb3;" horiz-adv-x="351" 
d="M33 430h28c2 -88 67 -117 111 -117c70 0 111 48 111 112c0 46 -33 112 -119 112h-27v25h27c85 0 91 66 91 80c0 43 -29 80 -78 81c-48 1 -80 -33 -82 -81h-28c4 77 64 106 110 106c54 0 106 -42 106 -105c0 -58 -40 -83 -57 -92c49 -20 85 -68 85 -124
c0 -81 -58 -139 -139 -139c-67 0 -138 47 -139 142z" />
    <glyph glyph-name="trademark" unicode="&#x2122;" horiz-adv-x="990" 
d="M10 740h275v-24h-125v-420h-27v420h-124zM385 740l208 -402l209 402h36v-444h-27v405h-2l-208 -405h-16l-208 404h-2v-404h-27v444h37z" />
    <glyph glyph-name="degree" unicode="&#xb0;" horiz-adv-x="400" 
d="M343 566c0 -80 -63 -143 -143 -143s-143 63 -143 143s63 143 143 143s143 -63 143 -143zM85 566c0 -64 50 -115 115 -115s115 51 115 115s-50 115 -115 115s-115 -51 -115 -115z" />
    <glyph glyph-name="mu" unicode="&#xb5;" horiz-adv-x="561" 
d="M73 -181v711h28v-300c0 -54 1 -117 39 -161c42 -50 98 -56 133 -56c109 0 183 84 183 265v252h28v-530h-28v119h-2c-14 -43 -54 -132 -181 -132c-112 0 -152 58 -170 90h-2v-258h-28z" />
    <glyph glyph-name="Aacute" unicode="&#xc1;" horiz-adv-x="687" 
d="M150 258l-111 -258h-32l317 740h39l317 -740h-32l-111 258h-387zM343 712l-180 -427h361zM226 813l237 138l14 -23l-238 -138z" />
    <glyph glyph-name="Acircumflex" unicode="&#xc2;" horiz-adv-x="687" 
d="M150 258l-111 -258h-32l317 740h39l317 -740h-32l-111 258h-387zM343 712l-180 -427h361zM343 933l196 -110l-26 -15l-170 94l-170 -94l-25 15z" />
    <glyph glyph-name="Adieresis" unicode="&#xc4;" horiz-adv-x="687" 
d="M150 258l-111 -258h-32l317 740h39l317 -740h-32l-111 258h-387zM343 712l-180 -427h361zM298 919v-116h-29v116h29zM418 919v-116h-29v116h29z" />
    <glyph glyph-name="Agrave" unicode="&#xc0;" horiz-adv-x="687" 
d="M150 258l-111 -258h-32l317 740h39l317 -740h-32l-111 258h-387zM343 712l-180 -427h361zM224 951l237 -138l-13 -23l-238 138z" />
    <glyph glyph-name="Aring" unicode="&#xc5;" horiz-adv-x="687" 
d="M150 258l-111 -258h-32l317 740h39l317 -740h-32l-111 258h-387zM343 712l-180 -427h361zM343 937c51 0 92 -41 92 -91s-41 -91 -92 -91c-50 0 -91 41 -91 91c0 51 42 91 91 91zM343 911c-35 0 -63 -29 -63 -64c0 -34 28 -63 63 -63c36 0 64 29 64 63c0 35 -28 64 -64 64
z" />
    <glyph glyph-name="Atilde" unicode="&#xc3;" horiz-adv-x="687" 
d="M150 258l-111 -258h-32l317 740h39l317 -740h-32l-111 258h-387zM343 712l-180 -427h361zM504 881l20 -21c-24 -16 -56 -32 -89 -32c-27 0 -55 4 -91 25c-44 23 -58 28 -84 28c-35 0 -63 -15 -78 -27l-20 20c22 18 51 35 98 35c21 0 40 -3 85 -24c37 -20 55 -27 89 -27
c26 0 43 7 70 23z" />
    <glyph glyph-name="Eacute" unicode="&#xc9;" horiz-adv-x="547" 
d="M77 740h406v-27h-376v-327h376v-27h-376v-332h376v-27h-406v740zM156 813l237 138l14 -23l-238 -138z" />
    <glyph glyph-name="Ecircumflex" unicode="&#xca;" horiz-adv-x="547" 
d="M77 740h406v-27h-376v-327h376v-27h-376v-332h376v-27h-406v740zM273 933l196 -110l-26 -15l-170 94l-170 -94l-25 15z" />
    <glyph glyph-name="Edieresis" unicode="&#xcb;" horiz-adv-x="547" 
d="M77 740h406v-27h-376v-327h376v-27h-376v-332h376v-27h-406v740zM228 919v-116h-29v116h29zM348 919v-116h-29v116h29z" />
    <glyph glyph-name="Egrave" unicode="&#xc8;" horiz-adv-x="547" 
d="M77 740h406v-27h-376v-327h376v-27h-376v-332h376v-27h-406v740zM154 951l237 -138l-13 -23l-238 138z" />
    <glyph glyph-name="Iacute" unicode="&#xcd;" horiz-adv-x="185" 
d="M107 740v-740h-30v740h30zM-5 813l237 138l14 -23l-238 -138z" />
    <glyph glyph-name="Icircumflex" unicode="&#xce;" horiz-adv-x="185" 
d="M107 740v-740h-30v740h30zM92 933l196 -110l-26 -15l-170 94l-170 -94l-25 15z" />
    <glyph glyph-name="Idieresis" unicode="&#xcf;" horiz-adv-x="185" 
d="M107 740v-740h-30v740h30zM47 919v-116h-29v116h29zM167 919v-116h-29v116h29z" />
    <glyph glyph-name="Igrave" unicode="&#xcc;" horiz-adv-x="185" 
d="M107 740v-740h-30v740h30zM-47 951l237 -138l-13 -23l-238 138z" />
    <glyph glyph-name="Ntilde" unicode="&#xd1;" horiz-adv-x="738" 
d="M122 740l507 -700h2v700h30v-740h-38l-514 710h-2v-710h-30v740h45zM530 881l20 -21c-24 -16 -56 -32 -89 -32c-27 0 -55 4 -91 25c-44 23 -58 28 -84 28c-35 0 -63 -15 -78 -27l-20 20c22 18 51 35 98 35c21 0 40 -3 85 -24c37 -20 55 -27 89 -27c26 0 43 7 70 23z" />
    <glyph glyph-name="Oacute" unicode="&#xd3;" horiz-adv-x="851" 
d="M41 370c0 222 172 383 384 383s384 -161 384 -383s-172 -383 -384 -383s-384 161 -384 383zM71 370c0 -205 158 -356 354 -356s354 151 354 356s-158 356 -354 356s-354 -151 -354 -356zM308 813l237 138l14 -23l-238 -138z" />
    <glyph glyph-name="Ocircumflex" unicode="&#xd4;" horiz-adv-x="851" 
d="M41 370c0 222 172 383 384 383s384 -161 384 -383s-172 -383 -384 -383s-384 161 -384 383zM71 370c0 -205 158 -356 354 -356s354 151 354 356s-158 356 -354 356s-354 -151 -354 -356zM425 933l196 -110l-26 -15l-170 94l-170 -94l-25 15z" />
    <glyph glyph-name="Odieresis" unicode="&#xd6;" horiz-adv-x="851" 
d="M41 370c0 222 172 383 384 383s384 -161 384 -383s-172 -383 -384 -383s-384 161 -384 383zM71 370c0 -205 158 -356 354 -356s354 151 354 356s-158 356 -354 356s-354 -151 -354 -356zM380 919v-116h-29v116h29zM500 919v-116h-29v116h29z" />
    <glyph glyph-name="Ograve" unicode="&#xd2;" horiz-adv-x="851" 
d="M41 370c0 222 172 383 384 383s384 -161 384 -383s-172 -383 -384 -383s-384 161 -384 383zM71 370c0 -205 158 -356 354 -356s354 151 354 356s-158 356 -354 356s-354 -151 -354 -356zM306 951l237 -138l-13 -23l-238 138z" />
    <glyph glyph-name="Otilde" unicode="&#xd5;" horiz-adv-x="851" 
d="M41 370c0 222 172 383 384 383s384 -161 384 -383s-172 -383 -384 -383s-384 161 -384 383zM71 370c0 -205 158 -356 354 -356s354 151 354 356s-158 356 -354 356s-354 -151 -354 -356zM586 881l20 -21c-24 -16 -56 -32 -89 -32c-27 0 -55 4 -91 25
c-44 23 -58 28 -84 28c-35 0 -63 -15 -78 -27l-20 20c22 18 51 35 98 35c21 0 40 -3 85 -24c37 -20 55 -27 89 -27c26 0 43 7 70 23z" />
    <glyph glyph-name="Scaron" unicode="&#x160;" horiz-adv-x="518" 
d="M45 187h30c18 -142 126 -173 183 -173c93 0 186 70 186 176c0 136 -118 164 -189 183c-65 16 -194 47 -194 186c-3 123 94 193 201 193c87 0 175 -51 191 -172h-30c-11 59 -44 145 -163 145c-94 0 -169 -64 -169 -161c-1 -117 97 -146 199 -172c36 -10 184 -37 184 -198
c0 -122 -105 -207 -215 -207c-89 0 -204 60 -214 200zM260 808l-196 110l26 15l170 -94l170 94l25 -14z" />
    <glyph glyph-name="Uacute" unicode="&#xda;" horiz-adv-x="605" 
d="M76 260v480h30v-480c0 -72 0 -118 46 -178c32 -42 93 -68 152 -68c56 0 117 26 149 68c46 60 46 106 46 178v480h30v-480c1 -67 -2 -167 -89 -228c-38 -28 -87 -45 -138 -45c-50 0 -99 17 -137 45c-87 61 -90 161 -89 228zM185 813l237 138l14 -23l-238 -138z" />
    <glyph glyph-name="Ucircumflex" unicode="&#xdb;" horiz-adv-x="605" 
d="M76 260v480h30v-480c0 -72 0 -118 46 -178c32 -42 93 -68 152 -68c56 0 117 26 149 68c46 60 46 106 46 178v480h30v-480c1 -67 -2 -167 -89 -228c-38 -28 -87 -45 -138 -45c-50 0 -99 17 -137 45c-87 61 -90 161 -89 228zM302 933l196 -110l-26 -15l-170 94l-170 -94
l-25 15z" />
    <glyph glyph-name="Udieresis" unicode="&#xdc;" horiz-adv-x="605" 
d="M76 260v480h30v-480c0 -72 0 -118 46 -178c32 -42 93 -68 152 -68c56 0 117 26 149 68c46 60 46 106 46 178v480h30v-480c1 -67 -2 -167 -89 -228c-38 -28 -87 -45 -138 -45c-50 0 -99 17 -137 45c-87 61 -90 161 -89 228zM257 919v-116h-29v116h29zM377 919v-116h-29
v116h29z" />
    <glyph glyph-name="Ugrave" unicode="&#xd9;" horiz-adv-x="605" 
d="M76 260v480h30v-480c0 -72 0 -118 46 -178c32 -42 93 -68 152 -68c56 0 117 26 149 68c46 60 46 106 46 178v480h30v-480c1 -67 -2 -167 -89 -228c-38 -28 -87 -45 -138 -45c-50 0 -99 17 -137 45c-87 61 -90 161 -89 228zM183 951l237 -138l-13 -23l-238 138z" />
    <glyph glyph-name="Yacute" unicode="&#xdd;" horiz-adv-x="554" 
d="M48 740l229 -451l228 451h34l-247 -485v-255h-30v255l-247 485h33zM160 813l237 138l14 -23l-238 -138z" />
    <glyph glyph-name="Ydieresis" unicode="&#x178;" horiz-adv-x="554" 
d="M48 740l229 -451l228 451h34l-247 -485v-255h-30v255l-247 485h33zM232 919v-116h-29v116h29zM352 919v-116h-29v116h29z" />
    <glyph glyph-name="Zcaron" unicode="&#x17d;" horiz-adv-x="499" 
d="M493 0h-473l403 713h-417v27h466l-403 -713h424v-27zM245 808l-196 110l26 15l170 -94l170 94l25 -14z" />
    <glyph glyph-name="aacute" unicode="&#xe1;" horiz-adv-x="674" 
d="M596 530v-530h-28v132h-2c-46 -90 -134 -145 -246 -145c-174 0 -279 135 -279 278c0 146 108 278 279 278c128 0 220 -79 246 -148h2v135h28zM323 13c146 0 248 115 248 252c0 145 -109 252 -251 252c-138 0 -251 -103 -251 -252c1 -120 83 -252 254 -252zM215 628
l237 138l14 -23l-238 -138z" />
    <glyph glyph-name="acircumflex" unicode="&#xe2;" horiz-adv-x="674" 
d="M596 530v-530h-28v132h-2c-46 -90 -134 -145 -246 -145c-174 0 -279 135 -279 278c0 146 108 278 279 278c128 0 220 -79 246 -148h2v135h28zM323 13c146 0 248 115 248 252c0 145 -109 252 -251 252c-138 0 -251 -103 -251 -252c1 -120 83 -252 254 -252zM337 748
l196 -110l-26 -15l-170 94l-170 -94l-25 15z" />
    <glyph glyph-name="adieresis" unicode="&#xe4;" horiz-adv-x="674" 
d="M596 530v-530h-28v132h-2c-46 -90 -134 -145 -246 -145c-174 0 -279 135 -279 278c0 146 108 278 279 278c128 0 220 -79 246 -148h2v135h28zM323 13c146 0 248 115 248 252c0 145 -109 252 -251 252c-138 0 -251 -103 -251 -252c1 -120 83 -252 254 -252zM292 734v-116
h-29v116h29zM412 734v-116h-29v116h29z" />
    <glyph glyph-name="agrave" unicode="&#xe0;" horiz-adv-x="674" 
d="M596 530v-530h-28v132h-2c-46 -90 -134 -145 -246 -145c-174 0 -279 135 -279 278c0 146 108 278 279 278c128 0 220 -79 246 -148h2v135h28zM323 13c146 0 248 115 248 252c0 145 -109 252 -251 252c-138 0 -251 -103 -251 -252c1 -120 83 -252 254 -252zM218 766
l237 -138l-13 -23l-238 138z" />
    <glyph glyph-name="aring" unicode="&#xe5;" horiz-adv-x="674" 
d="M596 530v-530h-28v132h-2c-46 -90 -134 -145 -246 -145c-174 0 -279 135 -279 278c0 146 108 278 279 278c128 0 220 -79 246 -148h2v135h28zM323 13c146 0 248 115 248 252c0 145 -109 252 -251 252c-138 0 -251 -103 -251 -252c1 -120 83 -252 254 -252zM337 775
c51 0 92 -41 92 -91s-41 -91 -92 -91c-50 0 -91 41 -91 91c0 51 42 91 91 91zM337 749c-35 0 -63 -29 -63 -64c0 -34 28 -63 63 -63c36 0 64 29 64 63c0 35 -28 64 -64 64z" />
    <glyph glyph-name="atilde" unicode="&#xe3;" horiz-adv-x="674" 
d="M596 530v-530h-28v132h-2c-46 -90 -134 -145 -246 -145c-174 0 -279 135 -279 278c0 146 108 278 279 278c128 0 220 -79 246 -148h2v135h28zM323 13c146 0 248 115 248 252c0 145 -109 252 -251 252c-138 0 -251 -103 -251 -252c1 -120 83 -252 254 -252zM498 686
l20 -21c-24 -16 -56 -32 -89 -32c-27 0 -55 4 -91 25c-44 23 -58 28 -84 28c-35 0 -63 -15 -78 -27l-20 20c22 18 51 35 98 35c21 0 40 -3 85 -24c37 -20 55 -27 89 -27c26 0 43 7 70 23z" />
    <glyph glyph-name="eacute" unicode="&#xe9;" horiz-adv-x="619" 
d="M588 262h-528c2 -173 147 -250 251 -249c98 0 184 50 226 140h31c-49 -113 -151 -167 -258 -166c-162 0 -279 120 -279 278v-1c0 159 122 279 280 279c142 0 271 -102 278 -266zM61 288h499c-6 128 -125 234 -249 229c-131 0 -242 -95 -250 -229zM187 628l237 138l14 -23
l-238 -138z" />
    <glyph glyph-name="ecircumflex" unicode="&#xea;" horiz-adv-x="619" 
d="M588 262h-528c2 -173 147 -250 251 -249c98 0 184 50 226 140h31c-49 -113 -151 -167 -258 -166c-162 0 -279 120 -279 278v-1c0 159 122 279 280 279c142 0 271 -102 278 -266zM61 288h499c-6 128 -125 234 -249 229c-131 0 -242 -95 -250 -229zM309 748l196 -110
l-26 -15l-170 94l-170 -94l-25 15z" />
    <glyph glyph-name="edieresis" unicode="&#xeb;" horiz-adv-x="619" 
d="M588 262h-528c2 -173 147 -250 251 -249c98 0 184 50 226 140h31c-49 -113 -151 -167 -258 -166c-162 0 -279 120 -279 278v-1c0 159 122 279 280 279c142 0 271 -102 278 -266zM61 288h499c-6 128 -125 234 -249 229c-131 0 -242 -95 -250 -229zM259 734v-116h-29v116
h29zM379 734v-116h-29v116h29z" />
    <glyph glyph-name="egrave" unicode="&#xe8;" horiz-adv-x="619" 
d="M588 262h-528c2 -173 147 -250 251 -249c98 0 184 50 226 140h31c-49 -113 -151 -167 -258 -166c-162 0 -279 120 -279 278v-1c0 159 122 279 280 279c142 0 271 -102 278 -266zM61 288h499c-6 128 -125 234 -249 229c-131 0 -242 -95 -250 -229zM190 766l237 -138
l-13 -23l-238 138z" />
    <glyph glyph-name="iacute" unicode="&#xed;" horiz-adv-x="184" 
d="M106 530v-530h-28v530h28zM-5 628l237 138l14 -23l-238 -138z" />
    <glyph glyph-name="icircumflex" unicode="&#xee;" horiz-adv-x="184" 
d="M106 530v-530h-28v530h28zM92 748l196 -110l-26 -15l-170 94l-170 -94l-25 15z" />
    <glyph glyph-name="idieresis" unicode="&#xef;" horiz-adv-x="184" 
d="M106 530v-530h-28v530h28zM47 734v-116h-29v116h29zM167 734v-116h-29v116h29z" />
    <glyph glyph-name="igrave" unicode="&#xec;" horiz-adv-x="184" 
d="M106 530v-530h-28v530h28zM-47 766l237 -138l-13 -23l-238 138z" />
    <glyph glyph-name="ntilde" unicode="&#xf1;" horiz-adv-x="641" 
d="M106 530v-102h2c33 77 129 117 213 115c68 0 124 -18 166 -53c52 -44 77 -115 77 -210v-280h-28v280c0 92 -25 151 -65 187c-41 37 -96 50 -150 50c-133 -2 -215 -79 -215 -212v-305h-28v530h28zM481 686l20 -21c-24 -16 -56 -32 -89 -32c-27 0 -55 4 -91 25
c-44 23 -58 28 -84 28c-35 0 -63 -15 -78 -27l-20 20c22 18 51 35 98 35c21 0 40 -3 85 -24c37 -20 55 -27 89 -27c26 0 43 7 70 23z" />
    <glyph glyph-name="oacute" unicode="&#xf3;" horiz-adv-x="641" 
d="M41 265c0 158 120 278 279 278s279 -120 279 -278c0 -159 -120 -278 -279 -278s-279 119 -279 278zM69 265c0 -144 108 -252 251 -252s251 108 251 252s-108 252 -251 252s-251 -108 -251 -252zM198 628l237 138l14 -23l-238 -138z" />
    <glyph glyph-name="ocircumflex" unicode="&#xf4;" horiz-adv-x="641" 
d="M41 265c0 158 120 278 279 278s279 -120 279 -278c0 -159 -120 -278 -279 -278s-279 119 -279 278zM69 265c0 -144 108 -252 251 -252s251 108 251 252s-108 252 -251 252s-251 -108 -251 -252zM320 748l196 -110l-26 -15l-170 94l-170 -94l-25 15z" />
    <glyph glyph-name="odieresis" unicode="&#xf6;" horiz-adv-x="641" 
d="M41 265c0 158 120 278 279 278s279 -120 279 -278c0 -159 -120 -278 -279 -278s-279 119 -279 278zM69 265c0 -144 108 -252 251 -252s251 108 251 252s-108 252 -251 252s-251 -108 -251 -252zM275 734v-116h-29v116h29zM395 734v-116h-29v116h29z" />
    <glyph glyph-name="ograve" unicode="&#xf2;" horiz-adv-x="641" 
d="M41 265c0 158 120 278 279 278s279 -120 279 -278c0 -159 -120 -278 -279 -278s-279 119 -279 278zM69 265c0 -144 108 -252 251 -252s251 108 251 252s-108 252 -251 252s-251 -108 -251 -252zM201 766l237 -138l-13 -23l-238 138z" />
    <glyph glyph-name="otilde" unicode="&#xf5;" horiz-adv-x="641" 
d="M41 265c0 158 120 278 279 278s279 -120 279 -278c0 -159 -120 -278 -279 -278s-279 119 -279 278zM69 265c0 -144 108 -252 251 -252s251 108 251 252s-108 252 -251 252s-251 -108 -251 -252zM481 686l20 -21c-24 -16 -56 -32 -89 -32c-27 0 -55 4 -91 25
c-44 23 -58 28 -84 28c-35 0 -63 -15 -78 -27l-20 20c22 18 51 35 98 35c21 0 40 -3 85 -24c37 -20 55 -27 89 -27c26 0 43 7 70 23z" />
    <glyph glyph-name="scaron" unicode="&#x161;" horiz-adv-x="426" 
d="M48 147h28c0 -85 58 -134 135 -134c79 0 129 60 127 129c-2 73 -42 108 -128 127c-80 23 -140 46 -143 137c0 88 65 137 144 137c77 -1 140 -47 140 -138h-28c0 80 -55 113 -112 112c-71 0 -119 -48 -116 -111c3 -64 41 -88 116 -109c70 -19 149 -38 155 -151
c5 -87 -64 -159 -155 -159c-88 0 -169 63 -163 160zM219 623l-196 110l26 15l170 -94l170 94l25 -14z" />
    <glyph glyph-name="uacute" unicode="&#xfa;" horiz-adv-x="641" 
d="M536 0v107h-2c-33 -82 -125 -122 -213 -120c-68 0 -124 18 -166 53c-52 44 -77 115 -77 210v280h28v-280c0 -92 25 -151 65 -187c41 -37 96 -50 150 -50c133 1 215 79 215 216v301h28v-530h-28zM203 628l237 138l14 -23l-238 -138z" />
    <glyph glyph-name="ucircumflex" unicode="&#xfb;" horiz-adv-x="641" 
d="M536 0v107h-2c-33 -82 -125 -122 -213 -120c-68 0 -124 18 -166 53c-52 44 -77 115 -77 210v280h28v-280c0 -92 25 -151 65 -187c41 -37 96 -50 150 -50c133 1 215 79 215 216v301h28v-530h-28zM320 748l196 -110l-26 -15l-170 94l-170 -94l-25 15z" />
    <glyph glyph-name="udieresis" unicode="&#xfc;" horiz-adv-x="641" 
d="M536 0v107h-2c-33 -82 -125 -122 -213 -120c-68 0 -124 18 -166 53c-52 44 -77 115 -77 210v280h28v-280c0 -92 25 -151 65 -187c41 -37 96 -50 150 -50c133 1 215 79 215 216v301h28v-530h-28zM275 734v-116h-29v116h29zM395 734v-116h-29v116h29z" />
    <glyph glyph-name="ugrave" unicode="&#xf9;" horiz-adv-x="641" 
d="M536 0v107h-2c-33 -82 -125 -122 -213 -120c-68 0 -124 18 -166 53c-52 44 -77 115 -77 210v280h28v-280c0 -92 25 -151 65 -187c41 -37 96 -50 150 -50c133 1 215 79 215 216v301h28v-530h-28zM201 766l237 -138l-13 -23l-238 138z" />
    <glyph glyph-name="yacute" unicode="&#xfd;" horiz-adv-x="481" 
d="M42 530l196 -491l209 491h33l-321 -743h-32l94 214l-210 529h31zM123 628l237 138l14 -23l-238 -138z" />
    <glyph glyph-name="ydieresis" unicode="&#xff;" horiz-adv-x="481" 
d="M42 530l196 -491l209 491h33l-321 -743h-32l94 214l-210 529h31zM195 734v-116h-29v116h29zM315 734v-116h-29v116h29z" />
    <glyph glyph-name="zcaron" unicode="&#x17e;" horiz-adv-x="407" 
d="M30 530h347v-27l-329 -477h346v-26h-382v24l329 480h-311v26zM204 623l-196 110l26 15l170 -94l170 94l25 -14z" />
    <glyph glyph-name="nbspace" unicode="&#xa0;" horiz-adv-x="277" 
 />
    <glyph glyph-name="Euro" unicode="&#x20ac;" 
d="M11 463h67v46c0 160 109 244 239 244c86 0 168 -37 224 -117l-17 -26c-43 69 -110 116 -208 116c-119 0 -208 -82 -208 -214v-49h358l-11 -27h-347v-107h304l-11 -27h-293v-80c0 -133 97 -208 208 -208c101 0 176 59 199 143h30c-27 -111 -125 -170 -227 -170
c-101 0 -240 60 -240 235v80h-78l11 27h67v107h-78z" />
    <glyph glyph-name="notequal" unicode="&#x2260;" horiz-adv-x="549" 
d="M12 354v45h294l103 261h39l-101 -261h190v-45h-208l-70 -181h278v-46h-296l-103 -258h-39l102 258h-189v46h207l71 181h-278z" />
    <glyph glyph-name="infinity" unicode="&#x221e;" horiz-adv-x="713" 
d="M305 288c-32 72 -71 105 -131 105c-68 0 -121 -53 -121 -134c0 -43 11 -78 34 -104s49 -39 78 -39c31 0 58 14 82 42c15 18 35 61 58 130zM366 227c48 -103 93 -129 152 -129c80 0 141 63 141 159c0 48 -14 88 -43 119c-28 31 -60 47 -95 47c-45 0 -77 -21 -104 -72
c-8 -15 -25 -56 -51 -124zM319 326c22 51 46 86 72 105c27 20 63 30 109 30c52 0 96 -19 133 -57c36 -37 54 -86 54 -147c0 -59 -18 -108 -53 -147s-75 -58 -118 -58c-32 0 -62 12 -90 36c-18 15 -43 50 -74 104c-43 -81 -88 -114 -159 -114c-47 0 -86 17 -118 50
c-33 34 -49 77 -49 130c0 54 15 97 45 130s65 49 105 49c28 0 53 -7 74 -22c21 -14 44 -44 69 -89z" />
    <glyph glyph-name="lessequal" unicode="&#x2264;" horiz-adv-x="549" 
d="M12 -79v45h525v-45h-525zM536 170v-50l-524 223v40l524 222v-50l-464 -192z" />
    <glyph glyph-name="greaterequal" unicode="&#x2265;" horiz-adv-x="549" 
d="M12 -79v45h525v-45h-525zM12 555v50l524 -223v-40l-524 -222v50l464 192z" />
    <glyph glyph-name="partialdiff" unicode="&#x2202;" horiz-adv-x="494" 
d="M445 307c-25 72 -79 110 -140 110c-29 0 -58 -10 -87 -31c-28 -20 -52 -55 -73 -106s-31 -101 -31 -152c0 -73 39 -115 95 -115c40 0 81 21 123 63c53 54 90 131 113 231zM454 350c3 37 5 67 5 91c0 117 -67 184 -168 184c-69 0 -112 -26 -147 -78h-23
c51 104 105 147 186 147c87 -2 182 -63 179 -245c0 -115 -25 -219 -75 -310c-57 -103 -128 -154 -214 -154c-101 0 -166 63 -166 163c1 118 76 226 157 266c37 19 75 29 113 29c53 0 98 -23 126 -52c9 -9 18 -23 27 -41z" />
    <glyph glyph-name="summation" unicode="&#x2211;" horiz-adv-x="713" 
d="M693 -13l-31 -202h-641v18l327 439l-327 433v18h624l13 -164h-19c-11 89 -50 125 -122 125h-361l274 -370l-307 -413h399c23 0 48 4 75 13c37 12 61 39 77 107z" />
    <glyph glyph-name="product" unicode="&#x220f;" horiz-adv-x="823" 
d="M605 -121v776h-388v-776c0 -55 22 -76 79 -76h18v-18h-292v18h18c57 0 79 21 79 76v721c0 53 -22 75 -79 75h-18v18h779v-18h-17c-57 0 -79 -22 -79 -75v-721c0 -55 22 -76 79 -76h17v-18h-292v18h17c57 0 79 21 79 76z" />
    <glyph glyph-name="pi" unicode="&#x3c0;" horiz-adv-x="505" 
d="M173 447h312v-71h-113l-10 -148c-2 -26 -3 -48 -3 -67c0 -45 5 -73 16 -83s23 -15 38 -15c31 0 50 20 56 59h17c-11 -90 -47 -135 -108 -135c-57 0 -95 35 -95 104c0 23 3 71 10 144l13 141h-103c-7 -119 -16 -205 -25 -260s-20 -90 -32 -106c-11 -15 -27 -23 -47 -23
c-29 0 -53 19 -53 47c0 14 9 33 26 56c26 35 45 71 58 108s22 97 29 178h-34c-53 0 -76 -25 -101 -69h-18c10 35 22 63 37 86s30 37 46 44s44 10 84 10z" />
    <glyph glyph-name="integral" unicode="&#x222b;" horiz-adv-x="274" 
d="M98 437l8 284c3 50 11 91 25 124c17 44 52 65 81 65c33 0 61 -26 61 -53c0 -31 -19 -50 -44 -50c-12 0 -25 6 -38 17c-7 7 -14 10 -19 10c-11 0 -20 -8 -20 -31c0 -13 2 -37 5 -71c12 -134 18 -242 18 -324c0 -23 -3 -119 -8 -288c-3 -95 -17 -160 -44 -194
c-17 -22 -39 -33 -65 -33c-35 0 -58 24 -58 59c0 29 19 48 44 48c13 0 24 -5 33 -15c10 -11 18 -16 25 -16c11 0 19 9 19 30c0 13 -2 33 -5 58c-5 47 -9 102 -12 165c-4 81 -6 153 -6 215z" />
    <glyph glyph-name="Omega" unicode="&#x3a9;" horiz-adv-x="768" 
d="M315 142l15 -142h-295v163h16c13 -51 24 -60 72 -60h148v14c-52 15 -93 34 -122 57c-59 47 -95 133 -95 214c0 49 13 97 39 143c53 92 158 144 291 144c67 0 125 -12 175 -37c51 -25 89 -60 115 -107c27 -46 40 -94 40 -143c0 -41 -9 -81 -26 -120
c-33 -79 -87 -120 -190 -151v-14h148c47 0 59 9 71 60h17v-163h-296l16 142c40 15 70 36 90 64c34 47 51 108 51 183c0 167 -81 252 -208 252c-67 0 -117 -19 -150 -56c-42 -47 -63 -112 -63 -195c0 -96 27 -170 75 -211c15 -15 37 -27 66 -37z" />
    <glyph glyph-name="radical" unicode="&#x221a;" horiz-adv-x="549" 
d="M385 119l127 794h36l-152 -951l-242 498l-97 -44l-16 31l146 74z" />
    <glyph glyph-name="approxequal" unicode="&#x2248;" horiz-adv-x="549" 
d="M514 267h21c-3 -83 -54 -134 -118 -134c-15 0 -40 5 -74 15l-109 45c-51 21 -87 31 -108 31c-45 0 -78 -27 -90 -90h-21c-1 86 55 132 112 134c14 0 29 -2 44 -6c34 -10 81 -28 142 -54c32 -14 58 -23 77 -28c9 -3 20 -4 32 -4c49 0 85 31 92 91zM514 507h21
c-3 -83 -54 -133 -118 -133c-15 0 -32 2 -49 7s-61 22 -134 52c-51 21 -87 31 -108 31c-45 0 -78 -28 -90 -89h-21c-1 84 56 131 113 133c14 0 28 -2 43 -7c34 -9 81 -27 142 -53c32 -14 58 -24 77 -29c9 -2 20 -3 32 -3c49 0 85 31 92 91z" />
    <glyph glyph-name="Delta" unicode="&#x394;" horiz-adv-x="612" 
d="M74 40h409l-194 472zM319 677l280 -677h-586z" />
    <glyph glyph-name="lozenge" unicode="&#x25ca;" horiz-adv-x="494" 
d="M417 346l-175 301l-166 -301l166 -300zM214 694h54l204 -348l-204 -346h-54l-191 346z" />
    </font>
</defs>
</svg>
